<svg width="283" height="75" viewBox="0 0 283 75" fill="none" xmlns="http://www.w3.org/2000/svg">
<path d="M84.5221 32.8583C84.681 32.8584 84.8399 32.8584 84.9988 32.8582C85.4242 32.8582 85.8496 32.8594 86.2751 32.8609C86.7219 32.8622 87.1687 32.8624 87.6155 32.8626C88.459 32.8633 89.3024 32.865 90.1459 32.8671C91.1072 32.8695 92.0686 32.8707 93.03 32.8717C95.0051 32.8739 96.9803 32.8777 98.9554 32.8824C99.1122 33.3096 99.2689 33.7368 99.4257 34.164C99.4787 34.3086 99.5318 34.4533 99.5849 34.598C100.212 36.3065 100.835 38.0165 101.432 39.7359C101.761 40.6845 102.107 41.627 102.454 42.5694C102.816 43.5523 103.173 44.5367 103.524 45.5233C103.568 45.6466 103.612 45.7699 103.658 45.8969C103.744 46.1404 103.831 46.3838 103.918 46.6272C104.4 47.98 104.887 49.3308 105.381 50.6792C105.416 50.7732 105.45 50.8673 105.486 50.9642C105.658 51.4328 105.83 51.9014 106.002 52.3699C106.357 53.3371 106.704 54.3066 107.043 55.2799C107.37 56.2167 107.71 57.1482 108.051 58.0799C108.603 59.5886 109.149 61.0985 109.669 62.6184C109.91 63.319 110.16 64.015 110.419 64.7089C110.693 65.4453 110.954 66.186 111.215 66.9269C111.605 68.0321 112.003 69.1328 112.426 70.2258C112.801 71.1994 113.137 72.1859 113.475 73.1725C113.618 73.5807 113.769 73.9858 113.921 74.3908C114 74.6259 114 74.6259 114 74.8378C103.371 74.8378 92.7426 74.8378 81.7918 74.8378C81.3164 73.7682 81.3164 73.7682 81.1897 73.3653C81.145 73.2264 81.145 73.2264 81.0994 73.0848C81.0521 72.9364 81.0521 72.9364 81.0038 72.785C80.6393 71.6659 80.238 70.5629 79.8252 69.4609C79.3937 68.3087 78.9671 67.156 78.567 65.9924C78.2316 65.0196 77.8818 64.0527 77.5187 63.09C77.4886 63.0099 77.4585 62.9298 77.4274 62.8473C77.3032 62.5173 77.1791 62.1873 77.0538 61.8577C76.9609 61.6131 76.8689 61.3683 76.7771 61.1233C76.7486 61.049 76.7202 60.9748 76.6908 60.8983C76.5566 60.538 76.4944 60.2895 76.4944 59.8991C70.5857 59.8991 64.677 59.8991 58.5892 59.8991C58.5892 52.3983 61.1941 45.7569 66.489 40.4246C67.1082 39.8097 67.751 39.2429 68.4424 38.7095C68.5462 38.6264 68.65 38.5432 68.7569 38.4575C70.9132 36.7404 73.4494 35.2402 76.0706 34.3657C76.1562 34.3367 76.2417 34.3077 76.3298 34.2778C78.9811 33.3921 81.722 32.8432 84.5221 32.8583Z" fill="#FEFEFE"/>
<path d="M15.0446 32.8824C17.1077 32.8749 19.1708 32.8693 21.234 32.8659C22.1921 32.8643 23.1503 32.8621 24.1084 32.8584C24.9445 32.8552 25.7807 32.8532 26.6168 32.8525C27.0586 32.8521 27.5004 32.8511 27.9422 32.8488C29.7401 32.8396 31.4972 32.8428 33.2676 33.2002C33.5022 33.243 33.7367 33.2858 33.9712 33.3285C37.8216 34.1092 41.4363 35.6287 44.6041 37.9679C44.6727 38.0186 44.7414 38.0692 44.8121 38.1214C45.752 38.8228 46.6196 39.5926 47.4647 40.4047C47.5225 40.4596 47.5802 40.5145 47.6398 40.5711C48.4589 41.352 49.1885 42.1692 49.8656 43.0759C50.0068 43.2645 50.1504 43.4512 50.2942 43.6378C53.9159 48.3897 55.4108 53.9983 55.4108 59.8991C49.502 59.8991 43.5933 59.8991 37.5056 59.8991C37.4706 60.1089 37.4356 60.3187 37.3996 60.5348C37.3093 60.8118 37.2153 61.0838 37.1141 61.3567C37.0854 61.4355 37.0567 61.5142 37.0272 61.5953C36.9355 61.8468 36.8432 62.098 36.7507 62.3492C36.631 62.676 36.5116 63.003 36.3923 63.33C36.3619 63.413 36.3316 63.4961 36.3003 63.5816C36.0814 64.1819 35.8689 64.7842 35.6589 65.3877C35.2272 66.628 34.7759 67.861 34.325 69.0944C34.2174 69.3887 34.11 69.6831 34.0027 69.9774C33.9676 70.0736 33.9325 70.1697 33.8964 70.2687C33.63 71.0012 33.3712 71.7362 33.1203 72.4741C32.844 73.2759 32.5247 74.0465 32.2082 74.8378C21.5795 74.8378 10.9508 74.8378 0 74.8378C0.192534 74.1318 0.37934 73.4652 0.638171 72.7879C0.704054 72.6122 0.769815 72.4364 0.835478 72.2606C0.871222 72.1651 0.906966 72.0696 0.943793 71.9711C1.16438 71.3766 1.37851 70.7797 1.59336 70.1831C1.64075 70.0516 1.68815 69.9201 1.73698 69.7847C1.86093 69.4408 1.98481 69.0968 2.10867 68.7529C2.23843 68.3926 2.36828 68.0324 2.49813 67.6721C2.65316 67.242 2.80819 66.8118 2.96319 66.3817C3.33567 65.348 3.70862 64.3144 4.08199 63.281C4.46769 62.2135 4.85322 61.1459 5.2378 60.0779C5.27432 59.9765 5.31083 59.8751 5.34846 59.7707C5.55921 59.1851 5.76938 58.5993 5.97908 58.0133C6.13803 57.5691 6.2971 57.125 6.4562 56.6809C6.48827 56.5914 6.52033 56.5019 6.55336 56.4097C6.94904 55.3056 7.34988 54.2038 7.76068 53.1052C8.17109 52.0074 8.55558 50.902 8.93413 49.7929C9.24109 48.8973 9.56631 48.0104 9.9029 47.1255C10.2494 46.2101 10.5755 45.2881 10.8994 44.3645C11.2907 43.2489 11.6878 42.136 12.0979 41.0271C12.7118 39.3668 13.2997 37.6973 13.8871 36.0275C13.9246 35.921 13.9622 35.8146 14.0008 35.7049C14.0707 35.5067 14.1405 35.3084 14.21 35.11C14.3963 34.5818 14.5911 34.0577 14.7927 33.5352C14.8636 33.3513 14.8636 33.3513 14.936 33.1635C14.9718 33.0708 15.0077 32.978 15.0446 32.8824Z" fill="#FEFEFE"/>
<path d="M36.6835 0.0024372C36.8894 0.00252714 37.0954 0.00247598 37.3013 0.00229655C37.8535 0.00220638 38.4056 0.00405835 38.9577 0.00629311C39.5373 0.0082973 40.1169 0.00846811 40.6965 0.00884394C41.791 0.0098268 42.8854 0.0124282 43.9799 0.0156297C45.2272 0.0191982 46.4745 0.0209339 47.7218 0.0225255C50.2848 0.0258364 52.8478 0.0314171 55.4108 0.0385206C55.4189 0.79941 55.4244 1.56029 55.4282 2.32121C55.4298 2.57909 55.432 2.83696 55.4347 3.09482C55.4515 4.6872 55.3911 6.20694 55.0929 7.77272C55.0588 7.96426 55.0588 7.96426 55.024 8.15966C54.2577 12.4171 52.3827 16.3718 49.6896 19.7448C49.6222 19.8304 49.5548 19.9159 49.4854 20.0041C48.8833 20.7565 48.2339 21.4505 47.5508 22.1287C47.4974 22.1819 47.444 22.2351 47.389 22.29C46.5774 23.0972 45.7518 23.8508 44.816 24.5125C44.759 24.5536 44.7021 24.5946 44.6434 24.6369C42.7074 26.0329 40.5873 27.2615 38.3531 28.1147C38.2883 28.1396 38.2235 28.1645 38.1567 28.1902C37.076 28.5973 35.9661 28.8818 34.8436 29.1477C34.7137 29.1789 34.5839 29.21 34.45 29.2421C32.9617 29.5845 31.506 29.7365 29.9795 29.728C29.829 29.7279 29.6784 29.728 29.5279 29.7281C29.1252 29.7282 28.7225 29.7269 28.3199 29.7254C27.8968 29.7241 27.4737 29.724 27.0507 29.7237C26.2523 29.7231 25.4538 29.7213 24.6554 29.7192C23.7453 29.7168 22.8352 29.7157 21.925 29.7146C20.0554 29.7124 18.1857 29.7087 16.316 29.7039C16.3725 29.2444 16.4499 28.8297 16.61 28.3953C16.668 28.2361 16.668 28.2361 16.7272 28.0738C16.7904 27.9039 16.7904 27.9039 16.8548 27.7307C16.8986 27.6112 16.9423 27.4917 16.9874 27.3686C17.1294 26.9814 17.2723 26.5945 17.4152 26.2077C17.5129 25.9418 17.6104 25.6758 17.7079 25.4099C17.8527 25.0147 17.9975 24.6195 18.1425 24.2244C18.5056 23.2348 18.8606 22.2426 19.2097 21.248C19.5191 20.3678 19.8402 19.4951 20.1856 18.6285C20.4239 18.0233 20.6297 17.4096 20.832 16.7915C21.3206 15.3012 21.855 13.8283 22.3933 12.3554C22.5839 11.8331 22.772 11.31 22.9584 10.7862C24.4202 6.68261 26.1152 3.19754 30.2548 1.22381C32.3605 0.253335 34.3825 -0.011909 36.6835 0.0024372Z" fill="#FEFEFE"/>
<path d="M58.5891 0.0385198C61.2914 0.0310757 63.9936 0.0254806 66.6958 0.0220516C67.9506 0.0204167 69.2055 0.01819 70.4603 0.0145418C71.5548 0.0113614 72.6492 0.00932024 73.7437 0.0086143C74.3225 0.00820203 74.9014 0.0072416 75.4802 0.0049141C76.0265 0.00273555 76.5728 0.00209544 77.1191 0.00256917C77.3182 0.00248267 77.5172 0.00186322 77.7163 0.000631023C79.3326 -0.00887045 80.9674 0.0829374 82.487 0.687451C82.5692 0.719085 82.6513 0.750719 82.736 0.783311C84.1177 1.33193 85.3462 2.00406 86.4534 3.00506C86.5447 3.0825 86.6359 3.15994 86.7299 3.23972C88.4573 4.72893 89.6562 6.78556 90.3603 8.93815C90.441 9.17818 90.5221 9.41807 90.6036 9.65785C90.6259 9.72353 90.6482 9.78922 90.6712 9.85689C91.0529 10.9731 91.4654 12.0788 91.8724 13.186C92.2602 14.2411 92.6381 15.2974 92.9883 16.3657C93.2129 17.0507 93.4548 17.7179 93.742 18.3797C93.9763 18.94 94.1714 19.515 94.3715 20.0881C94.4983 20.4513 94.6263 20.814 94.7542 21.1768C94.7789 21.247 94.8037 21.3171 94.8291 21.3895C95.0525 22.0217 95.2881 22.6487 95.527 23.2752C95.663 23.6434 95.7873 24.0133 95.9085 24.3867C96.1085 24.9947 96.3238 25.5956 96.5499 26.1944C96.5798 26.2737 96.6097 26.3529 96.6405 26.4345C96.7633 26.7597 96.8866 27.0847 97.0106 27.4094C97.1027 27.6509 97.1939 27.8927 97.285 28.1346C97.3129 28.2069 97.3408 28.2792 97.3696 28.3537C97.5382 28.804 97.6223 29.2285 97.6839 29.7039C95.7496 29.7164 93.8153 29.7257 91.881 29.7314C90.9825 29.7341 90.084 29.7378 89.1855 29.7439C88.4006 29.7493 87.6158 29.7526 86.831 29.7538C86.4169 29.7545 86.0029 29.756 85.5889 29.76C78.8128 29.8219 72.3154 27.5482 67.2951 22.9216C67.0927 22.7367 66.8859 22.5611 66.6743 22.3869C66.3462 22.1076 66.0704 21.7996 65.7924 21.471C65.6419 21.2975 65.4865 21.1282 65.328 20.962C64.0124 19.5809 62.9032 18.0217 61.9795 16.3545C61.9398 16.2833 61.9001 16.212 61.8592 16.1386C61.0496 14.6752 60.3584 13.1862 59.8605 11.5868C59.8194 11.4673 59.7783 11.3478 59.7359 11.2247C59.4453 10.3564 59.2294 9.48434 59.046 8.5872C59.0246 8.4844 59.0032 8.3816 58.9811 8.27569C58.6042 6.35592 58.5607 4.45827 58.5759 2.50843C58.577 2.2675 58.5779 2.02656 58.5788 1.78563C58.5811 1.20325 58.5846 0.620886 58.5891 0.0385198Z" fill="#FEFEFE"/>
<path d="M143.119 57V51.96L142.639 50.856V41.832C142.639 40.232 142.143 38.984 141.151 38.088C140.191 37.192 138.703 36.744 136.687 36.744C135.311 36.744 133.951 36.968 132.607 37.416C131.295 37.832 130.175 38.408 129.247 39.144L126.559 33.912C127.967 32.92 129.663 32.152 131.647 31.608C133.631 31.064 135.647 30.792 137.695 30.792C141.631 30.792 144.687 31.72 146.863 33.576C149.039 35.432 150.127 38.328 150.127 42.264V57H143.119ZM135.247 57.384C133.231 57.384 131.503 57.048 130.062 56.376C128.623 55.672 127.519 54.728 126.751 53.544C125.983 52.36 125.599 51.032 125.599 49.56C125.599 48.024 125.967 46.68 126.703 45.528C127.471 44.376 128.671 43.48 130.303 42.84C131.935 42.168 134.063 41.832 136.687 41.832H143.551V46.2H137.503C135.743 46.2 134.527 46.488 133.855 47.064C133.215 47.64 132.895 48.36 132.895 49.224C132.895 50.184 133.263 50.952 133.999 51.528C134.767 52.072 135.807 52.344 137.119 52.344C138.367 52.344 139.487 52.056 140.479 51.48C141.471 50.872 142.191 49.992 142.639 48.84L143.791 52.296C143.247 53.96 142.255 55.224 140.815 56.088C139.375 56.952 137.519 57.384 135.247 57.384ZM171.347 57.384C169.171 57.384 167.267 56.904 165.635 55.944C164.003 54.984 162.723 53.528 161.795 51.576C160.899 49.592 160.451 47.096 160.451 44.088C160.451 41.048 160.883 38.552 161.747 36.6C162.611 34.648 163.859 33.192 165.491 32.232C167.123 31.272 169.075 30.792 171.347 30.792C173.779 30.792 175.955 31.352 177.875 32.472C179.827 33.56 181.363 35.096 182.483 37.08C183.635 39.064 184.211 41.4 184.211 44.088C184.211 46.808 183.635 49.16 182.483 51.144C181.363 53.128 179.827 54.664 177.875 55.752C175.955 56.84 173.779 57.384 171.347 57.384ZM156.083 66.312V31.176H163.235V36.456L163.091 44.136L163.571 51.768V66.312H156.083ZM170.051 51.24C171.299 51.24 172.403 50.952 173.363 50.376C174.355 49.8 175.139 48.984 175.715 47.928C176.323 46.84 176.627 45.56 176.627 44.088C176.627 42.584 176.323 41.304 175.715 40.248C175.139 39.192 174.355 38.376 173.363 37.8C172.403 37.224 171.299 36.936 170.051 36.936C168.803 36.936 167.683 37.224 166.691 37.8C165.699 38.376 164.915 39.192 164.339 40.248C163.763 41.304 163.475 42.584 163.475 44.088C163.475 45.56 163.763 46.84 164.339 47.928C164.915 48.984 165.699 49.8 166.691 50.376C167.683 50.952 168.803 51.24 170.051 51.24ZM184.707 57L196.275 41.832L196.131 45.96L185.043 31.176H193.443L200.451 40.824L197.283 40.92L204.531 31.176H212.499L201.363 45.816V41.784L212.883 57H204.387L197.043 46.728L200.163 47.16L192.867 57H184.707ZM242.661 57V31.176H250.101V57H242.661ZM229.653 39.432C233.045 39.464 235.589 40.232 237.285 41.736C239.013 43.208 239.877 45.304 239.877 48.024C239.877 50.872 238.901 53.096 236.949 54.696C234.997 56.264 232.229 57.048 228.645 57.048L216.069 57V31.176H223.509V39.432H229.653ZM227.973 51.72C229.413 51.752 230.517 51.448 231.285 50.808C232.053 50.168 232.437 49.208 232.437 47.928C232.437 46.648 232.053 45.736 231.285 45.192C230.517 44.616 229.413 44.312 227.973 44.28L223.509 44.232V51.72H227.973ZM265.32 57.48C263.336 57.48 261.352 57.272 259.368 56.856C257.416 56.44 255.608 55.816 253.944 54.984L255.96 49.752C257.272 50.392 258.696 50.888 260.232 51.24C261.8 51.56 263.384 51.72 264.984 51.72C266.136 51.72 267.128 51.608 267.96 51.384C268.824 51.128 269.48 50.776 269.928 50.328C270.376 49.88 270.6 49.336 270.6 48.696C270.6 47.864 270.248 47.24 269.544 46.824C268.84 46.376 267.816 46.152 266.472 46.152H261.192V41.496H265.848C266.712 41.496 267.448 41.4 268.056 41.208C268.664 41.016 269.112 40.744 269.4 40.392C269.72 40.008 269.88 39.56 269.88 39.048C269.88 38.504 269.688 38.04 269.304 37.656C268.92 37.272 268.36 36.984 267.624 36.792C266.888 36.568 265.96 36.456 264.84 36.456C263.56 36.456 262.232 36.616 260.856 36.936C259.48 37.224 258.072 37.656 256.632 38.232L254.808 33.048C256.504 32.344 258.184 31.784 259.848 31.368C261.512 30.952 263.16 30.728 264.792 30.696C267.192 30.632 269.352 30.888 271.272 31.464C273.192 32.04 274.696 32.872 275.784 33.96C276.904 35.048 277.464 36.376 277.464 37.944C277.464 39.192 277.08 40.312 276.312 41.304C275.576 42.296 274.552 43.08 273.24 43.656C271.928 44.2 270.456 44.472 268.824 44.472L269.016 42.984C271.864 42.984 274.104 43.56 275.736 44.712C277.368 45.832 278.184 47.368 278.184 49.32C278.184 50.984 277.608 52.44 276.456 53.688C275.336 54.904 273.8 55.848 271.848 56.52C269.928 57.16 267.752 57.48 265.32 57.48Z" fill="white"/>
<path d="M230.402 73L226.44 68.072L227.042 67.722L231.242 73H230.402ZM223.598 73V63.2H224.312V73H223.598ZM224.074 68.352V67.708H227.056V68.352H224.074ZM227.084 68.17L226.426 68.03L230.192 63.2H230.99L227.084 68.17ZM232.169 72.272C232.627 72.4493 233.07 72.4913 233.499 72.398C233.929 72.2953 234.335 71.9453 234.717 71.348L235.193 70.606L235.277 70.494L239.141 63.2H239.883L235.361 71.516C235.081 72.048 234.75 72.44 234.367 72.692C233.994 72.944 233.597 73.0747 233.177 73.084C232.767 73.1027 232.356 73.028 231.945 72.86L232.169 72.272ZM235.235 71.18L231.035 63.2H231.819L235.641 70.55L235.235 71.18ZM241.151 73V63.2H244.665C245.486 63.2 246.191 63.3307 246.779 63.592C247.367 63.8533 247.819 64.2313 248.137 64.726C248.454 65.2113 248.613 65.804 248.613 66.504C248.613 67.1853 248.454 67.7733 248.137 68.268C247.819 68.7627 247.367 69.1407 246.779 69.402C246.191 69.6633 245.486 69.794 244.665 69.794H241.543L241.865 69.458V73H241.151ZM241.865 69.5L241.543 69.15H244.665C245.719 69.15 246.517 68.9213 247.059 68.464C247.609 67.9973 247.885 67.344 247.885 66.504C247.885 65.6547 247.609 65.0013 247.059 64.544C246.517 64.0773 245.719 63.844 244.665 63.844H241.543L241.865 63.494V69.5ZM254.735 73.07C254.007 73.07 253.331 72.9487 252.705 72.706C252.089 72.454 251.548 72.104 251.081 71.656C250.624 71.1987 250.269 70.6713 250.017 70.074C249.765 69.4673 249.639 68.8093 249.639 68.1C249.639 67.3907 249.765 66.7373 250.017 66.14C250.269 65.5333 250.624 65.006 251.081 64.558C251.548 64.1007 252.089 63.7507 252.705 63.508C253.331 63.256 254.007 63.13 254.735 63.13C255.463 63.13 256.135 63.256 256.751 63.508C257.377 63.7507 257.918 64.096 258.375 64.544C258.833 64.992 259.187 65.5193 259.439 66.126C259.701 66.7233 259.831 67.3813 259.831 68.1C259.831 68.8187 259.701 69.4813 259.439 70.088C259.187 70.6853 258.833 71.208 258.375 71.656C257.918 72.104 257.377 72.454 256.751 72.706C256.135 72.9487 255.463 73.07 254.735 73.07ZM254.735 72.412C255.361 72.412 255.939 72.3047 256.471 72.09C257.003 71.8753 257.465 71.572 257.857 71.18C258.249 70.788 258.553 70.3307 258.767 69.808C258.991 69.2853 259.103 68.716 259.103 68.1C259.103 67.4747 258.991 66.9053 258.767 66.392C258.553 65.8693 258.249 65.412 257.857 65.02C257.465 64.628 257.003 64.3247 256.471 64.11C255.939 63.8953 255.361 63.788 254.735 63.788C254.11 63.788 253.531 63.8953 252.999 64.11C252.467 64.3247 252.001 64.628 251.599 65.02C251.207 65.412 250.899 65.8693 250.675 66.392C250.461 66.9053 250.353 67.4747 250.353 68.1C250.353 68.716 250.461 69.2853 250.675 69.808C250.899 70.3307 251.207 70.788 251.599 71.18C252.001 71.572 252.467 71.8753 252.999 72.09C253.531 72.3047 254.11 72.412 254.735 72.412ZM261.971 73V63.2H265.485C266.306 63.2 267.011 63.3307 267.599 63.592C268.187 63.8533 268.64 64.2313 268.957 64.726C269.274 65.2113 269.433 65.804 269.433 66.504C269.433 67.1853 269.274 67.7733 268.957 68.268C268.64 68.7627 268.187 69.1407 267.599 69.402C267.011 69.6633 266.306 69.794 265.485 69.794H262.363L262.685 69.458V73H261.971ZM262.685 69.5L262.363 69.15H265.485C266.54 69.15 267.338 68.9213 267.879 68.464C268.43 67.9973 268.705 67.344 268.705 66.504C268.705 65.6547 268.43 65.0013 267.879 64.544C267.338 64.0773 266.54 63.844 265.485 63.844H262.363L262.685 63.494V69.5ZM272.781 73V63.62L272.991 63.844H269.253V63.2H277.023V63.844H273.285L273.495 63.62V73H272.781Z" fill="white"/>
</svg>
