<svg width="262" height="172" viewBox="0 0 262 172" fill="none" xmlns="http://www.w3.org/2000/svg">
<path d="M194.257 75.5184C194.623 75.5186 194.988 75.5185 195.353 75.5182C196.331 75.5181 197.309 75.5209 198.286 75.5244C199.313 75.5274 200.34 75.5277 201.367 75.5283C203.306 75.5298 205.244 75.5338 207.183 75.5387C209.392 75.5441 211.602 75.5468 213.811 75.5492C218.351 75.5543 222.89 75.5628 227.43 75.5737C227.79 76.5555 228.15 77.5374 228.51 78.5192C228.632 78.8517 228.754 79.1842 228.877 79.5166C230.318 83.4434 231.75 87.3736 233.121 91.3252C233.879 93.5055 234.674 95.6716 235.471 97.8375C236.302 100.096 237.123 102.359 237.931 104.626C238.032 104.91 238.133 105.193 238.237 105.485C238.436 106.045 238.635 106.604 238.834 107.163C239.942 110.273 241.063 113.377 242.199 116.476C242.278 116.692 242.357 116.909 242.439 117.131C242.833 118.208 243.229 119.285 243.625 120.362C244.441 122.585 245.239 124.813 246.017 127.05C246.768 129.203 247.551 131.344 248.335 133.485C249.603 136.953 250.858 140.423 252.054 143.916C252.606 145.526 253.181 147.126 253.776 148.721C254.406 150.413 255.006 152.116 255.607 153.818C256.503 156.358 257.417 158.888 258.389 161.4C259.25 163.638 260.024 165.905 260.801 168.173C261.129 169.111 261.477 170.042 261.826 170.973C262.007 171.513 262.007 171.513 262.007 172C237.579 172 213.151 172 187.983 172C186.89 169.542 186.89 169.542 186.599 168.616C186.496 168.297 186.496 168.297 186.391 167.971C186.282 167.63 186.282 167.63 186.172 167.282C185.334 164.71 184.411 162.175 183.463 159.642C182.471 156.994 181.491 154.345 180.571 151.671C179.8 149.435 178.996 147.213 178.162 145C178.092 144.816 178.023 144.632 177.952 144.442C177.666 143.684 177.381 142.925 177.093 142.168C176.88 141.606 176.668 141.043 176.457 140.48C176.392 140.309 176.326 140.139 176.259 139.963C175.95 139.135 175.808 138.564 175.808 137.666C162.227 137.666 148.647 137.666 134.656 137.666C134.656 120.427 140.643 105.163 152.812 92.9079C154.235 91.4947 155.712 90.1922 157.301 88.9663C157.54 88.7751 157.779 88.584 158.024 88.387C162.98 84.4406 168.809 80.9928 174.833 78.9827C175.03 78.9161 175.227 78.8495 175.429 78.7809C181.523 76.7452 187.822 75.4837 194.257 75.5184Z" fill="#FEFEFE"/>
<path d="M34.5771 75.5737C39.3188 75.5566 44.0604 75.5438 48.8021 75.5359C51.0043 75.5321 53.2064 75.527 55.4085 75.5186C57.3302 75.5113 59.2518 75.5066 61.1735 75.505C62.189 75.5041 63.2044 75.5019 64.2198 75.4965C68.3518 75.4755 72.3901 75.4829 76.4592 76.3042C76.9982 76.4025 77.5372 76.5008 78.0762 76.5991C86.9256 78.3934 95.2333 81.8856 102.514 87.2618C102.672 87.3782 102.829 87.4947 102.992 87.6147C105.152 89.2267 107.146 90.9958 109.088 92.8623C109.221 92.9885 109.354 93.1147 109.491 93.2447C111.373 95.0394 113.05 96.9177 114.606 99.0016C114.931 99.4351 115.261 99.8641 115.591 100.293C123.915 111.214 127.351 124.105 127.351 137.666C113.771 137.666 100.191 137.666 86.1992 137.666C86.1189 138.149 86.0385 138.631 85.9557 139.127C85.7482 139.764 85.532 140.389 85.2994 141.016C85.2336 141.197 85.1677 141.378 85.0998 141.565C84.8892 142.143 84.6768 142.72 84.4643 143.297C84.1892 144.049 83.9148 144.8 83.6406 145.552C83.5708 145.742 83.5011 145.933 83.4292 146.13C82.9261 147.51 82.4376 148.894 81.9551 150.281C80.9629 153.131 79.9257 155.965 78.8892 158.8C78.6421 159.476 78.3952 160.153 78.1485 160.829C78.0679 161.05 77.9873 161.271 77.9042 161.499C77.2921 163.182 76.6972 164.872 76.1205 166.567C75.4855 168.41 74.7517 170.181 74.0242 172C49.5962 172 25.1682 172 0 172C0.442502 170.378 0.87184 168.845 1.46671 167.289C1.61813 166.885 1.76927 166.481 1.92018 166.077C2.00233 165.857 2.08448 165.638 2.16912 165.412C2.67609 164.045 3.16823 162.673 3.66202 161.302C3.77095 161 3.87988 160.698 3.99211 160.386C4.277 159.596 4.5617 158.806 4.84636 158.015C5.14461 157.187 5.44304 156.359 5.74147 155.531C6.09778 154.543 6.45409 153.554 6.81032 152.565C7.66639 150.19 8.52355 147.814 9.38165 145.439C10.2681 142.986 11.1542 140.532 12.0381 138.077C12.122 137.844 12.2059 137.611 12.2924 137.371C12.7768 136.025 13.2598 134.679 13.7417 133.332C14.1071 132.311 14.4727 131.291 14.8383 130.27C14.912 130.064 14.9857 129.859 15.0616 129.647C15.971 127.109 16.8923 124.577 17.8364 122.052C18.7797 119.529 19.6633 116.988 20.5334 114.439C21.2389 112.381 21.9863 110.342 22.7599 108.309C23.5562 106.205 24.3058 104.086 25.0501 101.963C25.9494 99.3991 26.8621 96.8414 27.8047 94.2929C29.2155 90.4768 30.5667 86.6399 31.9168 82.8021C32.0031 82.5575 32.0893 82.3129 32.1782 82.0608C32.3388 81.6052 32.4991 81.1494 32.6589 80.6934C33.0871 79.4796 33.5347 78.275 33.9981 77.0742C34.1611 76.6513 34.1611 76.6513 34.3275 76.2199C34.4099 76.0067 34.4922 75.7934 34.5771 75.5737Z" fill="#FEFEFE"/>
<path d="M84.31 0.00560159C84.7832 0.0058083 85.2565 0.00569071 85.7298 0.00527834C86.9988 0.0050711 88.2678 0.00932749 89.5368 0.0144636C90.8689 0.0190699 92.201 0.0194625 93.5331 0.0203262C96.0485 0.0225851 98.5639 0.028564 101.079 0.0359221C103.946 0.0441234 106.813 0.0481127 109.679 0.0517706C115.57 0.05938 121.46 0.0722063 127.351 0.0885321C127.37 1.83729 127.382 3.58602 127.391 5.33485C127.395 5.92753 127.4 6.52019 127.406 7.11284C127.444 10.7726 127.306 14.2654 126.62 17.8641C126.542 18.3043 126.542 18.3043 126.462 18.7534C124.701 28.5382 120.391 37.6273 114.202 45.3797C114.047 45.5763 113.892 45.7729 113.733 45.9755C112.349 47.7048 110.856 49.2998 109.286 50.8584C109.164 50.9808 109.041 51.1031 108.914 51.2291C107.049 53.0845 105.152 54.8163 103.001 56.3372C102.87 56.4316 102.739 56.5259 102.604 56.6231C98.1547 59.8316 93.2821 62.6551 88.1473 64.6162C87.9983 64.6734 87.8493 64.7306 87.6958 64.7896C85.2121 65.7253 82.661 66.3791 80.0813 66.9903C79.7828 67.0619 79.4843 67.1334 79.1768 67.2072C75.756 67.9943 72.4106 68.3436 68.9022 68.324C68.5561 68.3239 68.2101 68.324 67.8641 68.3242C66.9386 68.3244 66.0132 68.3215 65.0878 68.3181C64.1154 68.315 63.1431 68.3148 62.1708 68.3142C60.3357 68.3127 58.5007 68.3087 56.6657 68.3038C54.574 68.2983 52.4822 68.2957 50.3905 68.2932C46.0934 68.2882 41.7963 68.2796 37.4991 68.2687C37.629 67.2126 37.8069 66.2594 38.1748 65.2611C38.3082 64.8953 38.3082 64.8953 38.4443 64.522C38.5895 64.1317 38.5895 64.1317 38.7376 63.7335C38.8381 63.4589 38.9387 63.1843 39.0423 62.9014C39.3686 62.0114 39.697 61.1223 40.0255 60.2332C40.2501 59.6222 40.4742 59.0109 40.6981 58.3996C41.0309 57.4914 41.3637 56.5831 41.6971 55.6751C42.5315 53.4006 43.3475 51.1203 44.1498 48.8343C44.861 46.8114 45.599 44.8058 46.3928 42.8139C46.9403 41.423 47.4135 40.0125 47.8784 38.5921C49.0014 35.1669 50.2296 31.7817 51.4666 28.3965C51.9047 27.1961 52.337 25.9939 52.7655 24.7901C56.1252 15.3587 60.0208 7.34892 69.5347 2.8127C74.3745 0.582242 79.0215 -0.0273705 84.31 0.00560159Z" fill="#FEFEFE"/>
<path d="M134.656 0.0885301C140.866 0.0714215 147.077 0.0585621 153.287 0.0506812C156.171 0.0469238 159.055 0.0418062 161.939 0.0334215C164.455 0.0261119 166.97 0.0214207 169.486 0.0197983C170.816 0.0188508 172.146 0.0166434 173.477 0.0112941C174.732 0.00628712 175.988 0.00481595 177.243 0.00590473C177.701 0.00570593 178.158 0.00428225 178.616 0.00145028C182.331 -0.020387 186.088 0.190615 189.58 1.57997C189.769 1.65268 189.958 1.72538 190.153 1.80029C193.328 3.06118 196.152 4.60593 198.697 6.90655C198.906 7.08452 199.116 7.2625 199.332 7.44587C203.302 10.8685 206.057 15.5953 207.676 20.5426C207.861 21.0943 208.048 21.6456 208.235 22.1967C208.286 22.3476 208.337 22.4986 208.39 22.6541C209.267 25.2196 210.215 27.7608 211.151 30.3054C212.042 32.7304 212.911 35.1581 213.716 37.6133C214.232 39.1877 214.788 40.7211 215.448 42.2422C215.986 43.5298 216.435 44.8514 216.895 46.1687C217.186 47.0033 217.48 47.837 217.774 48.6707C217.831 48.832 217.888 48.9933 217.946 49.1595C218.46 50.6126 219.001 52.0535 219.55 53.4934C219.863 54.3398 220.149 55.1899 220.427 56.048C220.887 57.4455 221.382 58.8266 221.901 60.2028C221.97 60.3849 222.039 60.567 222.109 60.7546C222.392 61.5019 222.675 62.2488 222.96 62.9951C223.172 63.5501 223.381 64.1059 223.591 64.6619C223.655 64.828 223.719 64.9942 223.785 65.1654C224.173 66.2003 224.366 67.1761 224.508 68.2687C220.062 68.2974 215.616 68.3188 211.171 68.3318C209.106 68.338 207.041 68.3465 204.976 68.3606C203.172 68.3729 201.368 68.3806 199.564 68.3833C198.613 68.3848 197.661 68.3884 196.71 68.3975C181.136 68.5397 166.203 63.3142 154.665 52.6809C154.2 52.2558 153.724 51.8523 153.238 51.452C152.484 50.8099 151.85 50.1022 151.211 49.347C150.865 48.9482 150.508 48.5591 150.144 48.1771C147.12 45.003 144.571 41.4194 142.448 37.5876C142.357 37.4239 142.265 37.2602 142.171 37.0915C140.311 33.7281 138.722 30.3059 137.578 26.6301C137.483 26.3555 137.389 26.0808 137.292 25.7978C136.624 23.8023 136.127 21.7979 135.706 19.736C135.657 19.4997 135.607 19.2635 135.557 19.0201C134.69 14.6078 134.59 10.2465 134.625 5.76514C134.628 5.2114 134.63 4.65766 134.632 4.10391C134.637 2.76543 134.645 1.42698 134.656 0.0885301Z" fill="#FEFEFE"/>
</svg>
